<?xml version="1.0" standalone="no"?>
<!DOCTYPE svg PUBLIC "-//W3C//DTD SVG 20010904//EN"
 "http://www.w3.org/TR/2001/REC-SVG-20010904/DTD/svg10.dtd">
<svg version="1.0" xmlns="http://www.w3.org/2000/svg"
 width="512.000000pt" height="512.000000pt" viewBox="0 0 512.000000 512.000000"
 preserveAspectRatio="xMidYMid meet">
<metadata>
Created by potrace 1.14, written by Peter Selinger 2001-2017
</metadata>
<g transform="translate(0.000000,512.000000) scale(0.100000,-0.100000)"
fill="#000000" stroke="none">
<path d="M0 2560 l0 -2560 2560 0 2560 0 0 2560 0 2560 -2560 0 -2560 0 0
-2560z m2530 1178 c56 -154 302 -891 394 -1183 151 -477 306 -994 306 -1019 0
-15 -15 -16 -132 -14 l-131 3 -59 200 c-32 110 -78 265 -101 345 l-43 145
-386 3 -385 2 -16 -57 c-8 -32 -49 -188 -90 -347 -42 -158 -77 -290 -79 -291
-2 -2 -58 -6 -125 -10 -97 -6 -123 -4 -123 5 0 15 61 249 132 505 27 99 58
214 70 255 79 292 295 1020 409 1383 l50 158 141 -3 140 -3 28 -77z m893 55
c16 -10 410 -811 467 -951 30 -72 58 -132 61 -132 3 0 12 15 21 33 41 86 261
438 505 810 117 178 125 188 151 183 15 -3 78 -8 140 -12 62 -4 115 -10 118
-15 2 -5 -53 -91 -124 -191 -225 -320 -467 -678 -624 -923 l-96 -150 -21 -395
c-12 -217 -25 -434 -28 -481 l-6 -85 -111 4 c-61 2 -115 8 -119 12 -5 4 1 196
12 426 12 231 21 450 21 488 l0 69 -254 501 c-140 276 -293 573 -340 661 -47
87 -86 161 -86 164 0 6 302 -9 313 -16z m-2166 -38 c17 -206 74 -1619 69
-1720 -11 -278 -80 -435 -234 -534 -146 -93 -385 -93 -526 0 -120 80 -228 317
-238 523 l-3 59 103 28 c56 15 104 24 106 20 2 -3 9 -38 15 -77 26 -168 78
-274 157 -320 40 -24 59 -28 118 -28 81 -1 130 20 182 76 86 91 91 147 59 735
-13 257 -34 642 -46 856 -12 213 -19 391 -15 395 7 6 192 20 236 18 9 -1 16
-13 17 -31z"/>
<path d="M2332 3445 c-13 -63 -40 -174 -61 -247 -21 -73 -75 -261 -120 -416
-45 -156 -85 -290 -88 -298 -4 -12 42 -14 306 -14 233 0 311 3 311 12 0 15
-88 310 -185 618 -41 129 -87 284 -104 344 -16 59 -32 110 -33 112 -2 2 -14
-48 -26 -111z"/>
</g>
</svg>
